<svg xmlns="http://www.w3.org/2000/svg" viewBox="0 0 105.79 23.52">
  <path fill="#333" d="M0 17.76V6.12h3v.94a4.63 4.63 0 0 1 3.11-1.18 5.07 5.07 0 0 1 3.91 1.82 5.78 5.78 0 0 1 4.13-1.82 5.31 5.31 0 0 1 4.11 1.88 5.78 5.78 0 0 1 1.18 3.84v6.16h-3.12v-6.29a2.73 2.73 0 0 0-.58-2 2.34 2.34 0 0 0-1.75-.71 3.63 3.63 0 0 0-2.81 1.54 10.26 10.26 0 0 1 .1 1.3v6.16H8.11v-6.29a2.73 2.73 0 0 0-.58-2 2.34 2.34 0 0 0-1.7-.71 3.6 3.6 0 0 0-2.72 1.44v7.56zm33.36 0h-3v-.94A4.87 4.87 0 0 1 27.11 18a5.85 5.85 0 0 1-4.39-2 6.25 6.25 0 0 1-1.49-4.08 5.84 5.84 0 0 1 5.71-6.07 5.33 5.33 0 0 1 3.41 1.18v-.91h3zm-3.12-7.56a3.58 3.58 0 0 0-2.88-1.44 3 3 0 0 0-3 3.19 3 3 0 0 0 3.07 3.17 3.41 3.41 0 0 0 2.81-1.44zm14.28 7.56v-.94A4.87 4.87 0 0 1 41.28 18a5.85 5.85 0 0 1-4.39-2 6.25 6.25 0 0 1-1.49-4.08 5.84 5.84 0 0 1 5.71-6.04 5.16 5.16 0 0 1 3.29 1.08V.76h3.12v17zm-.12-7.56a3.58 3.58 0 0 0-2.88-1.44 3 3 0 0 0-3 3.19 3 3 0 0 0 3.07 3.17 3.41 3.41 0 0 0 2.81-1.44zm16.03 5.71A6.31 6.31 0 0 1 55.65 18a5.82 5.82 0 0 1-6.1-6c0-3.24 2.21-6.07 5.67-6.07a5.65 5.65 0 0 1 5.5 6 5.14 5.14 0 0 1-.07.89h-8.07a3.06 3.06 0 0 0 3.14 2.76 4.12 4.12 0 0 0 2.93-1.34zm-2.9-5.47a2.32 2.32 0 0 0-2.3-2 2.53 2.53 0 0 0-2.5 2zm5.23 7.32v-17h3.12v6.2a5.16 5.16 0 0 1 3.29-1.08 5.84 5.84 0 0 1 5.71 6.07 6.25 6.25 0 0 1-1.49 4.08 5.85 5.85 0 0 1-4.39 2 4.87 4.87 0 0 1-3.24-1.18v.91zm3.12-4.08a3.41 3.41 0 0 0 2.81 1.44 3 3 0 0 0 3.07-3.17 3 3 0 0 0-3-3.19 3.58 3.58 0 0 0-2.88 1.44zm11.35 9.84l3.22-6.94-5.21-10.46h3.43l3.41 7 3.14-7h3.29l-8 17.4zM90.5 13.27a5.53 5.53 0 0 0 4 1.85 2.21 2.21 0 0 0 2.45-2.11c0-2.16-3.12-2.42-5.38-3.75a4.24 4.24 0 0 1-2.46-3.81c0-3 2.81-4.69 5.59-4.69a7.77 7.77 0 0 1 4.87 1.58l-1.68 2.4a4.49 4.49 0 0 0-2.9-1.1c-1.22 0-2.59.53-2.59 1.82 0 2.71 7.75 1.87 7.75 7.54 0 3-2.66 5-5.69 5a9 9 0 0 1-6.07-2.52z" class="cls-2"/>
  <path fill="#333" d="M103.75 0a2 2 0 1 1-2 2 2 2 0 0 1 2-2zm1.56 17.76h-3.12V6.12h3.12z"/>
</svg>
